<?xml version="1.0" encoding="utf-8"?>
<!-- Generator: Adobe Illustrator 21.0.2, SVG Export Plug-In . SVG Version: 6.00 Build 0)  -->
<svg version="1.1" id="Layer_1" xmlns="http://www.w3.org/2000/svg" xmlns:xlink="http://www.w3.org/1999/xlink" x="0px" y="0px"
	 viewBox="0 0 48 48" style="enable-background:new 0 0 48 48;" xml:space="preserve">
<style type="text/css">
	.st0{fill:#70C1AA;}
	.st1{fill:#EE7E87;}
</style>
<g>
	<path class="st0" d="M29.9,22c-0.7,0.5-1.8,0.9-3.3,0.9c-1.8,0-3.4-0.7-4.5-2c-0.8-0.9-1.4-2.2-1.6-3.8h-1.4V16h1.3
		c0-0.1,0-0.2,0-0.3c0-0.4,0-0.7,0-1h-1.3v-1.1h1.5c0.3-1.6,0.9-2.8,1.8-3.7C23.5,8.7,25,8,26.8,8c1.3,0,2.3,0.4,2.9,0.7l-0.4,1.5
		c-0.6-0.3-1.5-0.6-2.5-0.6c-1.2,0-2.2,0.4-2.9,1.2c-0.7,0.6-1.1,1.6-1.3,2.8h6.2v1.1h-6.4c0,0.3,0,0.6,0,0.9c0,0.1,0,0.2,0,0.4h6.4
		v1.1h-6.3c0.2,1.3,0.6,2.2,1.2,2.9c0.8,0.9,1.9,1.3,3.1,1.3s2.2-0.4,2.7-0.7L29.9,22z"/>
</g>
<path class="st1" d="M42.2,25.6c-0.1-0.8-0.9-1.3-1.7-1.2l-1.9,0.3c-0.1,0-0.2,0-0.3,0.1v-0.4c0-4.8-3.3-8.8-7.7-10
	c0,0.2,0,0.4,0,0.6c0,0.7-0.1,1.4-0.2,2c3.2,1.6,5.5,4.8,5.8,8.5H11.7c0.3-3.8,2.6-6.9,5.8-8.5c-0.1-0.7-0.2-1.3-0.2-2
	c0-0.2,0-0.4,0-0.6c-4.4,1.2-7.7,5.2-7.7,10v0.4c-0.1,0-0.2-0.1-0.3-0.1l-1.9-0.3c-0.8-0.1-1.5,0.4-1.7,1.2
	c-0.1,0.8,0.4,1.5,1.2,1.7l1.3,0.2c-1,0.8-1.6,2-1.6,3.3c0,1.5,0.8,2.8,1.9,3.6v2c0,0.9,0.7,1.6,1.6,1.6h2.5c0.9,0,1.6-0.7,1.6-1.6
	v-1.2h19.2v1.2c0,0.9,0.7,1.6,1.6,1.6h2.5c0.9,0,1.6-0.7,1.6-1.6v-2c1.2-0.8,1.9-2.1,1.9-3.6c0-1.3-0.6-2.5-1.6-3.3l1.3-0.2
	C41.8,27.1,42.3,26.4,42.2,25.6z M11,33.2c-1.3,0-2.4-1.1-2.4-2.4c0-1.3,1.1-2.4,2.4-2.4s2.4,1.1,2.4,2.4
	C13.4,32.1,12.4,33.2,11,33.2z M37,33.2c-1.3,0-2.4-1.1-2.4-2.4c0-1.3,1.1-2.4,2.4-2.4c1.3,0,2.4,1.1,2.4,2.4
	C39.4,32.1,38.3,33.2,37,33.2z"/>
</svg>
