<?xml version="1.0" encoding="utf-8"?>
<!-- Generator: Adobe Illustrator 21.0.2, SVG Export Plug-In . SVG Version: 6.00 Build 0)  -->
<svg version="1.1" id="Layer_1" xmlns="http://www.w3.org/2000/svg" xmlns:xlink="http://www.w3.org/1999/xlink" x="0px" y="0px"
	 viewBox="0 0 48 48" style="enable-background:new 0 0 48 48;" xml:space="preserve">
<style type="text/css">
	.st0{fill:#FEF1CE;}
	.st1{fill:#DE8BC8;}
</style>
<path class="st0" d="M8.9,38.5l13.7,4.4l0,0l0,0l0,0l0,0l7-2.5l8.6,0.5l1.3-3.7l-10.7-2.9c0,0-0.3,0-0.4,0h-1.6
	c-0.2,0-0.3,0-0.5,0.1l-4.2,2c-0.5,0.2-0.8,0.8-0.7,1.3l0.1,0.3c0.2,0.7,0.8,1.1,1.5,1l3.6-0.8v0.2l-3.4,1c-0.2,0-0.4,0-0.6,0
	c0,0.1-11.4-2.6-11.4-2.6c-0.9-0.2-1.9,0.1-2.5,0.8l-0.1,0.2C8.4,38.1,8.5,38.5,8.9,38.5z"/>
<g>
	<path class="st1" d="M25.9,27c0,2.9,1.1,4.8,2.7,5.6H29c0.1,0,0.4,0,0.4,0l1.9,0.5c2.4-0.3,4.4-2.4,4.4-6.5c0-4-1.9-6.2-4.8-6.2
		C28.1,20.5,25.9,22.8,25.9,27z M33.5,26.8c0,2.7-0.8,4.7-2.7,4.7c-1.7,0-2.7-2-2.7-4.7c0-2.6,1-4.7,2.7-4.7
		C32.7,22.2,33.5,24.3,33.5,26.8z"/>
	<polygon class="st1" points="18.8,33.3 31,11.9 29.2,11.9 17,33.3 	"/>
	<path class="st1" d="M17.2,24.6c2.7,0,5-2.2,5-6.5c0-4-1.9-6.2-4.8-6.2c-2.7,0-5,2.3-5,6.5C12.4,22.5,14.6,24.6,17.2,24.6z
		 M17.2,13.6c1.9,0,2.7,2.1,2.7,4.6c0,2.7-0.8,4.7-2.7,4.7c-1.8,0-2.7-2-2.7-4.7C14.6,15.6,15.5,13.6,17.2,13.6z"/>
</g>
</svg>
