<?xml version="1.0" encoding="utf-8"?>
<!-- Generator: Adobe Illustrator 21.0.2, SVG Export Plug-In . SVG Version: 6.00 Build 0)  -->
<svg version="1.1" id="Layer_1" xmlns="http://www.w3.org/2000/svg" xmlns:xlink="http://www.w3.org/1999/xlink" x="0px" y="0px"
	 viewBox="0 0 48 48" style="enable-background:new 0 0 48 48;" xml:space="preserve">
<style type="text/css">
	.st0{fill:#FEF1CE;}
	.st1{fill:#FDE39D;}
	.st2{fill:#70C1AA;}
</style>
<g>
	<path class="st0" d="M33.6,32.7L33.6,32.7l-0.3-10c0-0.2-0.3-0.4-0.5-0.3l-0.1,0.1c-0.6,0.3-1,0.9-1,1.5l-0.4,8.1
		c0,0.1-0.1,0.3-0.1,0.4l-1.3,2.1h-0.1l1.2-2.2c0.2-0.4,0.1-0.9-0.4-1.2l-0.2-0.1c-0.3-0.2-0.8-0.1-1,0.2l-2.1,2.4
		c-0.1,0.1-0.1,0.2-0.2,0.3l-0.3,1c0,0.1-0.1,0.3-0.1,0.3l-0.1,7.5l2.7-0.2l1.3-5.8L33.6,32.7L33.6,32.7L33.6,32.7L33.6,32.7z"/>
	<path class="st0" d="M21.3,35L21,34c0-0.1-0.1-0.2-0.2-0.3l-2.1-2.3c-0.3-0.3-0.7-0.4-1-0.2l-0.2,0.1c-0.4,0.2-0.6,0.7-0.4,1.2
		l1.2,2.2h-0.1l-1.3-2c-0.1-0.1-0.1-0.3-0.2-0.4l-0.6-8.1c-0.1-0.6-0.5-1.2-1-1.5L15,22.5c-0.2-0.1-0.5,0-0.5,0.3l-0.1,10l0,0l0,0
		l0,0l0,0l3.1,4.1l1.4,5.8l2.7,0.1l-0.2-7.5C21.4,35.3,21.4,35.1,21.3,35z"/>
	<circle class="st1" cx="24" cy="9" r="3.9"/>
	<path class="st2" d="M16.7,21.2l2.7-4.1v5.2h9.4V17l2.7,4.1c0.4,0.5,1.1,0.7,1.6,0.3c0.5-0.4,0.7-1.1,0.3-1.6l-3.5-5.3
		c-0.2-0.5-0.6-0.8-1.1-0.8h-1.6H21h-1.6c-0.5,0-0.9,0.3-1.1,0.8l-3.5,5.4c-0.4,0.5-0.2,1.2,0.3,1.6C15.6,21.9,16.3,21.7,16.7,21.2z
		"/>
	<path class="st1" d="M21,27.8l1.1-0.8l-2.4-3.3l-2.2,1.6c-0.6,0.4-0.7,1.3-0.3,1.9l1.6,2.2l1.6,2.2c0.4,0.6,1.3,0.7,1.9,0.3
		s0.7-1.3,0.3-1.9L21,27.8z"/>
	<path class="st1" d="M27.6,31.6l1.6-2.2l1.6-2.2c0.4-0.6,0.3-1.5-0.3-1.9l-2.2-1.6L25.9,27l1.1,0.8L25.4,30
		c-0.4,0.6-0.3,1.5,0.3,1.9S27.1,32.2,27.6,31.6z"/>
</g>
</svg>
