<?xml version="1.0" encoding="utf-8"?>
<!-- Generator: Adobe Illustrator 21.0.2, SVG Export Plug-In . SVG Version: 6.00 Build 0)  -->
<svg version="1.1" id="Layer_1" xmlns="http://www.w3.org/2000/svg" xmlns:xlink="http://www.w3.org/1999/xlink" x="0px" y="0px"
	 viewBox="0 0 48 48" style="enable-background:new 0 0 48 48;" xml:space="preserve">
<style type="text/css">
	.st0{fill:#70C1AA;}
	.st1{fill:#FBCD53;}
</style>
<g>
	<path class="st0" d="M18.3,20.9c-0.1,0.8,0,1.7,0.4,2.6L17.9,24l0.4,0.6l0.7-0.5c0.1,0.2,0.2,0.4,0.3,0.5c0,0.1,0.1,0.1,0.1,0.2
		l-0.7,0.5l0.4,0.6l0.7-0.5c0.7,0.8,1.4,1.3,2.2,1.4c1,0.3,2.1,0.1,3.1-0.6c0.8-0.5,1.2-1.2,1.4-1.7L25.9,24
		c-0.2,0.3-0.5,0.9-1.2,1.4c-0.6,0.4-1.4,0.6-2.1,0.4c-0.6-0.1-1.1-0.5-1.7-1.1l3.3-2.2l-0.4-0.6l-3.4,2.3c-0.1-0.1-0.1-0.1-0.1-0.2
		c-0.1-0.2-0.2-0.3-0.3-0.5l3.4-2.3L23,20.6l-3.3,2.2c-0.3-0.7-0.4-1.4-0.3-2c0.1-0.7,0.5-1.3,1.1-1.7c0.5-0.4,1.1-0.5,1.5-0.6
		l-0.3-0.9c-0.4,0-1.1,0.2-1.8,0.7C19,19,18.5,19.9,18.3,20.9z"/>
	<path class="st0" d="M16.6,13l0.3,0.4c0.2-0.1,0.4-0.1,0.7,0c0.2-0.1,0.4-0.2,0.6-0.3C17.6,12.8,17,12.7,16.6,13z"/>
	<path class="st0" d="M19.6,17.3l0.3,0.4c0.5-0.6,0.4-1.8-0.3-3c-0.2,0.1-0.4,0.1-0.5,0.2C19.7,15.8,19.9,16.8,19.6,17.3z"/>
	<path class="st1" d="M42.2,25.6c-0.1-0.8-0.9-1.3-1.7-1.2l-1.9,0.3c-0.1,0-0.2,0-0.3,0.1v-0.4c0-2.7-1-5.2-2.8-7
		c-2.5-3-6.8-5.4-11.6-5.4c-2.1,0-4,0.5-5.8,1.2c-0.2,0.1-0.4,0.2-0.6,0.3c-0.4,0.2-0.7,0.3-1,0.5c-0.1,0.5,0.1,1.2,0.5,1.8
		c0.6-0.4,1.3-0.7,2-1c0.2-0.1,0.4-0.1,0.5-0.2c1.3-0.4,2.8-0.7,4.4-0.7c8,0,12,6,12,9s-6.2,5-12,5s-12-2-12-5
		c0-1.9,1.5-4.9,4.6-6.9c-0.4-0.6-0.6-1.3-0.6-1.8c-1.4,0.9-2.7,1.9-3.6,3.1c-1.7,1.8-2.8,4.3-2.8,7v0.4c-0.1,0-0.2-0.1-0.3-0.1
		l-1.9-0.3c-0.8-0.1-1.5,0.4-1.7,1.2S6,27,6.8,27.2l1.3,0.2c-1,0.8-1.6,2-1.6,3.3c0,1.5,0.8,2.8,1.9,3.6v2c0,0.9,0.7,1.6,1.6,1.6
		h2.5c0.9,0,1.6-0.7,1.6-1.6v-1.2h19.2v1.2c0,0.9,0.7,1.6,1.6,1.6h2.5c0.9,0,1.6-0.7,1.6-1.6v-2c1.2-0.8,1.9-2.1,1.9-3.6
		c0-1.3-0.6-2.5-1.6-3.3l1.3-0.2C41.8,27.1,42.3,26.4,42.2,25.6z M11,33.2c-1.3,0-2.4-1.1-2.4-2.4c0-1.3,1.1-2.4,2.4-2.4
		s2.4,1.1,2.4,2.4C13.4,32.1,12.4,33.2,11,33.2z M37,33.2c-1.3,0-2.4-1.1-2.4-2.4c0-1.3,1.1-2.4,2.4-2.4s2.4,1.1,2.4,2.4
		C39.4,32.1,38.3,33.2,37,33.2z"/>
	<path class="st0" d="M19.5,17.4L19.5,17.4c-0.6,0.4-1.6-0.2-2.3-1.3c-0.1-0.1-0.1-0.2-0.1-0.2c-0.4-0.7-0.6-1.4-0.5-1.8
		c0-0.2,0.1-0.4,0.2-0.5l-0.3-0.4c-0.3,0.3-0.5,0.7-0.4,1.2c0,0.6,0.2,1.2,0.6,1.8c0,0.1,0.1,0.1,0.1,0.2c0.9,1.3,2.2,2,3,1.5
		l0.1-0.1L19.5,17.4z"/>
</g>
</svg>
