<?xml version="1.0" encoding="utf-8"?>
<!-- Generator: Adobe Illustrator 21.0.2, SVG Export Plug-In . SVG Version: 6.00 Build 0)  -->
<svg version="1.1" id="Layer_1" xmlns="http://www.w3.org/2000/svg" xmlns:xlink="http://www.w3.org/1999/xlink" x="0px" y="0px"
	 viewBox="0 0 48 48" style="enable-background:new 0 0 48 48;" xml:space="preserve">
<style type="text/css">
	.st0{fill:none;}
	.st1{fill:#FDE39D;}
	.st2{fill:#C2E4DA;}
	.st3{fill:#808080;}
</style>
<g>
	<path class="st0" d="M30.3,8.6h-0.7v0H28v0.2c0,0.2-0.2,0.4-0.4,0.4h-2.9h-0.4h-0.6h-0.3h-2.6c-0.2,0-0.4-0.2-0.4-0.4V8.5h-1.8
		h-0.9c-0.5,0-0.9,0.4-0.9,0.9v29.2c0,0.5,0.4,0.9,0.9,0.9h0.9h11.7c0.5,0,0.9-0.4,0.9-0.9v-8.3v-1.1v-3.1v-1.5V9.5
		C31.2,9,30.8,8.6,30.3,8.6z M28.1,16.8c0.9,0,1.6,0.7,1.6,1.6c0,0.9-0.7,1.6-1.6,1.6s-1.6-0.7-1.6-1.6
		C26.5,17.5,27.2,16.8,28.1,16.8z M28.1,21.4c0.9,0,1.6,0.7,1.6,1.6s-0.7,1.6-1.6,1.6s-1.6-0.7-1.6-1.6S27.2,21.4,28.1,21.4z
		 M28.1,26c0.9,0,1.6,0.7,1.6,1.6c0,0.9-0.7,1.6-1.6,1.6s-1.6-0.7-1.6-1.6C26.5,26.7,27.2,26,28.1,26z M22,13.9h4.3v0.4H22V13.9z
		 M24.1,24.6c-0.9,0-1.6-0.7-1.6-1.6s0.7-1.6,1.6-1.6s1.6,0.7,1.6,1.6S25,24.6,24.1,24.6z M25.7,27.6c0,0.9-0.7,1.6-1.6,1.6
		s-1.6-0.7-1.6-1.6c0-0.9,0.7-1.6,1.6-1.6S25.7,26.7,25.7,27.6z M24.1,20c-0.9,0-1.6-0.7-1.6-1.6c0-0.9,0.7-1.6,1.6-1.6
		s1.6,0.7,1.6,1.6C25.7,19.3,25,20,24.1,20z M20.1,16.8c0.9,0,1.6,0.7,1.6,1.6c0,0.9-0.7,1.6-1.6,1.6s-1.6-0.7-1.6-1.6
		C18.5,17.5,19.2,16.8,20.1,16.8z M20.1,21.4c0.9,0,1.6,0.7,1.6,1.6s-0.7,1.6-1.6,1.6s-1.6-0.7-1.6-1.6S19.2,21.4,20.1,21.4z
		 M20.1,26c0.9,0,1.6,0.7,1.6,1.6c0,0.9-0.7,1.6-1.6,1.6s-1.6-0.7-1.6-1.6C18.5,26.7,19.2,26,20.1,26z M23.7,38.5h-6.1v-1h6.1V38.5z
		 M22.5,32.1c0-0.9,0.7-1.6,1.6-1.6s1.6,0.7,1.6,1.6c0,0.9-0.7,1.6-1.6,1.6S22.5,33,22.5,32.1z M30.5,38.5h-6.1v-1h6.1V38.5z"/>
	<circle class="st1" cx="20.1" cy="23" r="1.6"/>
	<circle class="st1" cx="24.1" cy="23" r="1.6"/>
	<circle class="st1" cx="28.1" cy="23" r="1.6"/>
	<circle class="st1" cx="20.1" cy="18.4" r="1.6"/>
	<circle class="st1" cx="24.1" cy="18.4" r="1.6"/>
	<circle class="st1" cx="28.1" cy="18.4" r="1.6"/>
	<circle class="st1" cx="20.1" cy="27.6" r="1.6"/>
	<circle class="st1" cx="24.1" cy="27.6" r="1.6"/>
	<circle class="st1" cx="28.1" cy="27.6" r="1.6"/>
	<circle class="st1" cx="24.1" cy="32.1" r="1.6"/>
	<rect x="17.6" y="37.5" class="st2" width="6.1" height="1"/>
	<rect x="24.4" y="37.5" class="st2" width="6.1" height="1"/>
	<rect x="22" y="13.9" class="st1" width="4.3" height="0.4"/>
	<path class="st3" d="M31,8h-3.4h-2.9h-0.4h-0.6h-0.3h-2.6h-2.3h-1.4c-0.5,0-0.9,0.4-0.9,0.9V39c0,0.5,0.4,0.9,0.9,0.9h1.4h11.2v0h1
		c0,0,0,0,0,0h0.3c0.5,0,0.9-0.4,0.9-0.9v-8.7v-1.1v-3.1v-1.5V9C31.9,8.5,31.5,8,31,8z M31.2,24.7v1.5v3.1v1.1v8.3
		c0,0.5-0.4,0.9-0.9,0.9H18.6h-0.9c-0.5,0-0.9-0.4-0.9-0.9V9.5c0-0.5,0.4-0.9,0.9-0.9h0.9h1.8v0.2c0,0.2,0.2,0.4,0.4,0.4h2.6h0.3
		h0.6h0.4h2.9C27.8,9.2,28,9,28,8.8V8.5h1.7v0h0.7c0.5,0,0.9,0.4,0.9,0.9V24.7z"/>
</g>
</svg>
