<?xml version="1.0" encoding="utf-8"?>
<!-- Generator: Adobe Illustrator 21.0.2, SVG Export Plug-In . SVG Version: 6.00 Build 0)  -->
<svg version="1.1" id="Layer_1" xmlns="http://www.w3.org/2000/svg" xmlns:xlink="http://www.w3.org/1999/xlink" x="0px" y="0px"
	 viewBox="0 0 48 48" style="enable-background:new 0 0 48 48;" xml:space="preserve">
<style type="text/css">
	.st0{fill:#FBCD53;}
	.st1{fill:#DE8BC8;}
	.st2{fill:#808080;}
</style>
<g>
	<path class="st0" d="M34.5,27c-3,0-5.5,2.5-5.5,5.5s2.5,5.5,5.5,5.5s5.5-2.5,5.5-5.5S37.5,27,34.5,27z M34.7,36.3
		c-0.9,0-1.7-0.3-2.2-1c-0.4-0.5-0.7-1.1-0.8-1.9H31v-0.5h0.6c0-0.1,0-0.1,0-0.2c0-0.2,0-0.3,0-0.5H31v-0.5h0.7
		c0.1-0.8,0.5-1.4,0.9-1.9c0.6-0.6,1.3-0.9,2.2-0.9c0.6,0,1.2,0.2,1.5,0.4L36,30c-0.3-0.2-0.7-0.3-1.2-0.3c-0.6,0-1.1,0.2-1.5,0.6
		c-0.3,0.3-0.5,0.8-0.7,1.4h3.1v0.5h-3.2c0,0.1,0,0.3,0,0.5c0,0.1,0,0.1,0,0.2h3.2v0.5h-3.1c0.1,0.6,0.3,1.1,0.6,1.4
		c0.4,0.4,1,0.6,1.6,0.6s1.1-0.2,1.3-0.4l0.2,0.7C36,36,35.4,36.3,34.7,36.3z"/>
	<path class="st1" d="M28.9,35.8c-1.5,0.6-3.1,1-4.9,1c-7,0-12.8-5.7-12.8-12.8S17,11.3,24,11.3c4,0,7.6,1.9,10,4.8L32,18h6v-6
		l-1.8,1.7C33.3,10.2,28.9,8,24,8C15.2,8,8,15.2,8,24s7.2,16,16,16c2.7,0,5.2-0.7,7.4-1.8C30.3,37.6,29.5,36.8,28.9,35.8z"/>
	<path class="st2" d="M24.5,20.6V14h-1v6.6c0.2,0,0.3-0.1,0.5-0.1S24.3,20.5,24.5,20.6z"/>
	<path class="st2" d="M31,24.5v-1h-3.6c0,0.2,0.1,0.3,0.1,0.5s0,0.3-0.1,0.5H31z"/>
	<circle class="st1" cx="24" cy="24" r="2.5"/>
</g>
</svg>
