<?xml version="1.0" encoding="utf-8"?>
<!-- Generator: Adobe Illustrator 21.0.2, SVG Export Plug-In . SVG Version: 6.00 Build 0)  -->
<svg version="1.1" id="Layer_1" xmlns="http://www.w3.org/2000/svg" xmlns:xlink="http://www.w3.org/1999/xlink" x="0px" y="0px"
	 viewBox="0 0 48 48" style="enable-background:new 0 0 48 48;" xml:space="preserve">
<style type="text/css">
	.st0{fill:#FBCD53;}
	.st1{fill:#DE8BC8;}
</style>
<g>
	<path class="st0" d="M15,26c-2.8,0-5,2.2-5,5s2.2,5,5,5s5-2.2,5-5S17.8,26,15,26z M15.1,34.4c-0.8,0-1.5-0.3-2-0.9
		c-0.4-0.4-0.6-1-0.7-1.7h-0.6v-0.5h0.6c0,0,0-0.1,0-0.2c0-0.2,0-0.3,0-0.5h-0.6v-0.5h0.7c0.1-0.7,0.4-1.3,0.8-1.7
		c0.5-0.5,1.2-0.8,2-0.8c0.6,0,1.1,0.2,1.3,0.3l-0.2,0.7c-0.3-0.2-0.7-0.3-1.1-0.3c-0.5,0-1,0.2-1.3,0.5s-0.5,0.7-0.6,1.3h2.8v0.5
		h-2.9c0,0.1,0,0.3,0,0.4s0,0.1,0,0.2h2.9v0.5h-2.8c0.1,0.6,0.3,1,0.6,1.3c0.4,0.4,0.9,0.6,1.4,0.6s1-0.2,1.2-0.3l0.2,0.6
		C16.3,34.2,15.8,34.4,15.1,34.4z"/>
	<path class="st0" d="M39.4,22.6c-0.8-8.8-8.5-15.3-17.3-14.5c-4.9,0.4-9.1,3-11.7,6.8l-1.9-1.6l0.5,6l6-0.5L12.9,17
		c2.1-3.1,5.5-5.3,9.5-5.7c7-0.6,13.2,4.6,13.8,11.6c0.6,7-4.6,13.2-11.6,13.8c-1.2,0.1-2.3,0-3.4-0.2l-0.6,3.2
		c1.4,0.3,2.8,0.3,4.2,0.2C33.7,39.2,40.2,31.4,39.4,22.6z"/>
	<path class="st1" d="M32,21c0-0.6-0.4-1-1-1H17c-0.6,0-1,0.4-1,1v1h16V21z"/>
	<path class="st1" d="M16,25c2.3,0.2,4.2,1.8,4.8,4H31c0.6,0,1-0.4,1-1v-4H16V25z"/>
</g>
</svg>
