<?xml version="1.0" encoding="utf-8"?>
<!-- Generator: Adobe Illustrator 21.0.2, SVG Export Plug-In . SVG Version: 6.00 Build 0)  -->
<svg version="1.1" id="Layer_1" xmlns="http://www.w3.org/2000/svg" xmlns:xlink="http://www.w3.org/1999/xlink" x="0px" y="0px"
	 viewBox="0 0 48 48" style="enable-background:new 0 0 48 48;" xml:space="preserve">
<style type="text/css">
	.st0{fill:#DE8BC8;}
	.st1{fill:#FBCD53;}
</style>
<path class="st0" d="M20,14.8c-0.5,0-1,0.5-1,1c0,0.5,0.5,1,1,1h8c0.5,0,1-0.5,1-1s-0.5-1-1-1C28,14.8,20,14.8,20,14.8z"/>
<path class="st1" d="M28.8,12.9c0.8-1.2,1.2-2.6,1.2-4C30,5.6,27.7,6,24.4,6S18,5.6,18,8.9c0,1.4,0.5,2.8,1.2,4H28.8z"/>
<path class="st1" d="M29.9,18c-0.2,0.4-0.5,0.6-0.7,0.6H18.9c-0.3,0-0.5-0.3-0.7-0.6C13.3,21.3,10,28.3,10,34.5
	c0,8.6,7.3,7.5,15,7.5s13,1.1,13-7.5C38,28.3,34.7,21.3,29.9,18z M26.2,37.4c-1.9,0-3.5-0.7-4.7-2c-0.9-1-1.4-2.3-1.7-3.9h-1.4v-1.1
	h1.3c0-0.1,0-0.2,0-0.3c0-0.4,0-0.7,0-1h-1.4V28h1.5c0.3-1.6,1-2.9,1.9-3.9c1.2-1.2,2.7-1.9,4.5-1.9c1.4,0,2.4,0.4,3.1,0.7L29,24.3
	c-0.6-0.3-1.5-0.6-2.6-0.6c-1.2,0-2.3,0.4-3,1.3c-0.7,0.7-1.1,1.7-1.4,2.9h6.4V29h-6.6c0,0.3,0,0.6,0,1c0,0.1,0,0.3,0,0.4h6.7v1.1
	H22c0.2,1.3,0.6,2.3,1.3,3c0.8,0.9,2,1.3,3.2,1.3s2.3-0.5,2.8-0.8l0.4,1.4C28.9,37,27.7,37.4,26.2,37.4z"/>
</svg>
