<?xml version="1.0" encoding="utf-8"?>
<!-- Generator: Adobe Illustrator 21.0.2, SVG Export Plug-In . SVG Version: 6.00 Build 0)  -->
<svg version="1.1" id="Layer_1" xmlns="http://www.w3.org/2000/svg" xmlns:xlink="http://www.w3.org/1999/xlink" x="0px" y="0px"
	 viewBox="0 0 48 48" style="enable-background:new 0 0 48 48;" xml:space="preserve">
<style type="text/css">
	.st0{fill:#FBCD53;}
	.st1{fill:#DE8BC8;}
	.st2{fill:#FDE39D;}
</style>
<circle class="st0" cx="24" cy="10" r="3"/>
<g>
	<path class="st1" d="M37.9,40.2c-0.6,0.4-1.5,0.8-2.7,0.8c-1.5,0-2.8-0.6-3.7-1.8c-0.7-0.8-1.2-2-1.3-3.4H29v-1h1
		c0-0.1,0-0.2,0-0.3c0-0.3,0-0.6,0-0.9h-1v-1h1.2c0.2-1.4,0.8-2.5,1.5-3.3c0.9-1,2.1-1.6,3.6-1.6c1.1,0,1.9,0.3,2.4,0.6l-0.4,1.3
		c-0.5-0.3-1.2-0.6-2-0.6c-1,0-1.8,0.4-2.4,1.1c-0.5,0.6-0.9,1.5-1.1,2.5h5.1v1h-5.3c0,0.3,0,0.6,0,0.8c0,0.1,0,0.2,0,0.4h5.3v1
		h-5.2c0.1,1.1,0.5,2,1,2.6c0.7,0.8,1.6,1.1,2.6,1.1s1.8-0.4,2.2-0.7L37.9,40.2z"/>
</g>
<path class="st2" d="M35.6,24.8l-5.2-9.1c-0.2-0.9-1-1.7-2-1.7c-0.1,0-0.4,0-0.4,0c-0.1,0-0.7,0-1,0h-6h-1h-1c-1.1,0-2,0.9-2,2v10
	c0,0.6,0.4,1,1,1s1-0.4,1-1v-9h1v22.5c0,0.8,0.7,1.5,1.5,1.5s1.5-0.7,1.5-1.5V31v-1v-1c0-0.6,0.4-1,1-1s1,0.4,1,1v1v1v8.5
	c0,0.8,0.7,1.5,1.5,1.5s1.5-0.7,1.5-1.5V17h0.8l5.1,8.8c0.3,0.5,0.9,0.6,1.4,0.4C35.7,25.9,35.9,25.2,35.6,24.8z"/>
</svg>
