<?xml version="1.0" encoding="utf-8"?>
<!-- Generator: Adobe Illustrator 21.0.2, SVG Export Plug-In . SVG Version: 6.00 Build 0)  -->
<svg version="1.1" id="Layer_1" xmlns="http://www.w3.org/2000/svg" xmlns:xlink="http://www.w3.org/1999/xlink" x="0px" y="0px"
	 viewBox="0 0 48 48" style="enable-background:new 0 0 48 48;" xml:space="preserve">
<style type="text/css">
	.st0{fill:none;}
	.st1{fill:#70C1AA;}
	.st2{fill:#FEF1CE;}
	.st3{fill:#FDE39D;}
</style>
<g>
	<path class="st0" d="M26.3,21.8c-0.2-0.2-0.3-0.4-0.3-0.6c-0.4-0.1-0.8-0.1-1.3-0.1c-0.1,0-0.2,0-0.3,0c-1.4,0.1-2.5,0.5-3.3,1.3
		c-0.7,0.7-1.3,1.6-1.5,2.7h-1.2v0.8h1.1c0,0.2,0,0.5,0,0.7c0,0.1,0,0.2,0,0.2h-1v0.8h1.1c0.2,1.2,0.6,2.1,1.3,2.8
		c0.9,0.9,2.2,1.4,3.7,1.4c1.2,0,2.2-0.3,2.7-0.7l-0.3-1c-0.4,0.2-1.3,0.5-2.2,0.5c-1,0-1.9-0.3-2.6-0.9c-0.5-0.5-0.9-1.2-1-2.1h5.2
		v-0.8H21c0-0.1,0-0.2,0-0.3c0-0.2,0-0.5,0-0.7h5.3V25h-5.1c0.2-0.9,0.6-1.6,1.1-2c0.6-0.6,1.4-0.9,2.4-0.9c0.2,0,0.4,0,0.6,0
		c0.5,0.1,0.9,0.2,1.2,0.3c0.1,0,0.2,0.1,0.2,0.1L27,22h-0.2C26.7,22,26.5,21.9,26.3,21.8z"/>
	<path class="st1" d="M22.5,12.2L22.5,12.2l4.3,0.7c0.3,0.1,0.5,0.2,0.7,0.3c0.9-1,1.5-2.4,1.5-3.4c0-2-2.2-2.9-5-2.9s-5,0.9-5,2.9
		c0,1,0.5,2.2,1.4,3.2l0.7-0.6C21.4,12.2,22,12.1,22.5,12.2z"/>
	<path class="st1" d="M24,35c4.4,0,8-2.3,8-7.5c0-1.7-0.4-3.6-1-5.5h-2.2H27l-0.2,0.6c-0.1,0-0.2-0.1-0.2-0.1
		c-0.3-0.1-0.8-0.3-1.2-0.3c-0.2,0-0.4,0-0.6,0c-1,0-1.8,0.3-2.4,0.9c-0.6,0.5-0.9,1.2-1.1,2h5.1v0.8h-5.3c0,0.2,0,0.5,0,0.7
		c0,0.1,0,0.2,0,0.3h5.3v0.8h-5.2c0.1,0.9,0.5,1.6,1,2.1c0.7,0.6,1.6,0.9,2.6,0.9s1.8-0.3,2.2-0.5l0.3,1c-0.6,0.3-1.5,0.7-2.7,0.7
		c-1.5,0-2.8-0.5-3.7-1.4c-0.7-0.7-1.2-1.6-1.3-2.8h-1.1v-0.8h1c0-0.1,0-0.2,0-0.2c0-0.3,0-0.5,0-0.7h-1.1v-0.8h1.2
		c0.2-1.1,0.8-2.1,1.5-2.7c0.9-0.8,2-1.2,3.3-1.3c0.1,0,0.2,0,0.3,0c0.5,0,0.9,0.1,1.3,0.1v-0.1c0-0.2,0.1-0.4,0.2-0.6
		c0.1-0.1,0.2-0.2,0.3-0.3c0.1-0.1,0.2-0.1,0.3-0.1c-0.5,0-0.9-0.5-0.9-1s0.4-1,0.9-1c-0.3,0-0.6-0.2-0.7-0.5c0-0.3-0.1-0.5-0.1-0.7
		l0,0c0-0.2,0.1-0.4,0.2-0.6c-1.1-0.4-3.1-1.2-4.3-1.8c-1.9,1.1-3.5,3.6-4.5,6.3c-0.8,2.2-1.3,4.6-1.3,6.5C16,32.7,19.6,35,24,35z"
		/>
	<path class="st2" d="M29.7,16.1c0,0.2-0.1,0.3-0.3,0.5l-0.1,0.1c0,0-0.4,0.1-0.8,0.3l0,0c-0.5,0-1,0-1.4-0.2
		c-0.1,0-0.2-0.1-0.3-0.1c-0.1-0.1-0.3-0.2-0.6-0.3C26.1,16.6,26,16.8,26,17l0,0c0,0.2,0.1,0.4,0.2,0.5c0.2,0.3,0.4,0.5,0.7,0.5
		c-0.5,0-0.9,0.5-0.9,1s0.4,1,0.9,1c-0.1,0-0.2,0-0.3,0.1c-0.1,0.1-0.2,0.2-0.3,0.3C26.1,20.6,26,20.8,26,21v0.1
		c0,0.3,0.1,0.5,0.3,0.6c0.1,0.1,0.3,0.2,0.5,0.2H27h1.8H31h0.1c0.5,0,0.9-0.5,0.9-1s-0.4-1-0.9-1c0.5,0,0.9-0.5,0.9-1s-0.4-1-0.9-1
		c0.5,0,0.9-0.5,0.9-1s-0.4-1-0.9-1c0.5,0,0.9-0.5,0.9-1s-0.4-1-0.9-1h-2.9l1.2,1.3C29.7,15.5,29.7,15.8,29.7,16.1z"/>
	<path class="st3" d="M21.8,14.7c1.3,0.6,3.3,1.3,4.3,1.8c0.3,0.1,0.5,0.2,0.6,0.3c0.1,0,0.2,0.1,0.3,0.1c0.4,0.2,0.9,0.2,1.4,0.1
		l0,0c0.4-0.1,0.8-0.3,0.8-0.3l0.1-0.1c0.2-0.1,0.3-0.3,0.3-0.5c0.1-0.3,0-0.5-0.2-0.8L28.2,14l-0.6-0.7l-0.1-0.1
		c-0.2-0.2-0.4-0.3-0.7-0.3l-4.2-0.8l0,0c-0.5-0.1-1.1,0-1.4,0.3L20.5,13L19,14.2h-2.2c-0.5,0-0.8,0.3-0.8,0.7v5.4
		c0,0.4,0.4,0.7,0.8,0.7h0.5C18.4,18.3,20,15.8,21.8,14.7z"/>
	<path class="st2" d="M32.7,34c0,0-0.3,0-0.4,0h-1.5c-0.2,0-0.3,0-0.5,0.1l-3.9,1.8c-0.5,0.2-0.7,0.7-0.6,1.2l0.1,0.3
		c0.1,0.6,0.7,1,1.4,0.9l3.3-0.7v0.2l-3.2,0.9c-0.2,0.1-0.4,0.1-0.6,0l-10.7-2.5c-0.9-0.2-1.7,0.1-2.3,0.8l-0.1,0.1
		c-0.2,0.2-0.1,0.6,0.2,0.7l12.8,4.3l6.5-2.4l8,0.5l1.3-3.5L32.7,34z"/>
</g>
</svg>
