<?xml version="1.0" encoding="utf-8"?>
<!-- Generator: Adobe Illustrator 21.0.2, SVG Export Plug-In . SVG Version: 6.00 Build 0)  -->
<svg version="1.1" id="Layer_1" xmlns="http://www.w3.org/2000/svg" xmlns:xlink="http://www.w3.org/1999/xlink" x="0px" y="0px"
	 viewBox="0 0 48 48" style="enable-background:new 0 0 48 48;" xml:space="preserve">
<style type="text/css">
	.st0{fill:#DE8BC8;}
	.st1{fill:#808080;}
</style>
<g>
	<path class="st0" d="M38,22.4l-23.6-8.6c-0.8-0.3-1.6,0.1-1.9,0.9l-3.3,9c-0.3,0.8,0.1,1.6,0.9,1.9l1.7,0.6v0l14.7,5.4l7.3,2.6
		c0.8,0.3,1.6-0.1,1.9-0.9l3.3-9C39.1,23.6,38.7,22.7,38,22.4z M13.7,23.6L13,23.3l1.8-5l0,0l-1.2,0.2l0.1-0.6l1.5-0.2l0.7,0.2
		L13.7,23.6z M20.8,21.4c-0.4,1.1-1.5,1.6-3.1,2.4L17.1,24l0,0l2.6,0.9l-0.2,0.6l-3.7-1.3l0.2-0.5l0.8-0.4c2-0.9,2.9-1.4,3.2-2.2
		c0.2-0.6,0.1-1.2-0.7-1.5c-0.5-0.2-1-0.1-1.4,0l0-0.6c0.5-0.2,1.2-0.2,1.8,0C20.9,19.6,21.1,20.6,20.8,21.4z M26.4,23.1
		c-0.2,0.6-0.7,1-1.5,1l0,0c0.7,0.4,1,1.1,0.7,1.9c-0.3,0.9-1.3,1.5-2.7,1c-0.6-0.2-1.1-0.6-1.3-0.9l0.4-0.5
		c0.2,0.2,0.6,0.6,1.1,0.8c1,0.4,1.5-0.2,1.7-0.6c0.3-0.8-0.3-1.4-1.1-1.7l-0.4-0.2l0.2-0.6l0.4,0.2c0.6,0.2,1.4,0.2,1.6-0.5
		c0.2-0.5,0-1-0.7-1.2c-0.5-0.2-1-0.1-1.3,0l0-0.6c0.4-0.1,1-0.1,1.7,0.1C26.3,21.5,26.6,22.4,26.4,23.1z M29.9,28.7l-1,0.5l-1.5-3
		l1-0.5l1,2l6-3l0.5,1L29.9,28.7z"/>
	<path class="st1" d="M24,11.5c-3.1,0-5.9,1.1-8,2.9l20.3,7.4C35.3,16,30.2,11.5,24,11.5z"/>
	<path class="st1" d="M11.7,26.2c1,5.9,6.1,10.3,12.3,10.3c3.1,0,5.9-1.1,8-2.9l-5.6-2L11.7,26.2L11.7,26.2z"/>
</g>
</svg>
