<?xml version="1.0" encoding="utf-8"?>
<!-- Generator: Adobe Illustrator 21.0.2, SVG Export Plug-In . SVG Version: 6.00 Build 0)  -->
<svg version="1.1" id="Layer_1" xmlns="http://www.w3.org/2000/svg" xmlns:xlink="http://www.w3.org/1999/xlink" x="0px" y="0px"
	 viewBox="0 0 48 48" style="enable-background:new 0 0 48 48;" xml:space="preserve">
<style type="text/css">
	.st0{fill:#EE7E87;}
	.st1{fill:#FBCD53;}
</style>
<g>
	<polygon class="st0" points="24,6.7 14,16.7 14,13 11.2,13 11.2,19.4 11.3,19.4 8.5,22.2 10.3,24 24,10.3 37.7,24 39.5,22.2 	"/>
	<path class="st1" d="M24,15.8c-7.1,0-12.8,5.7-12.8,12.8S16.9,41.3,24,41.3s12.8-5.7,12.8-12.8S31.1,15.8,24,15.8z M25,35.8
		c-1.9,0-3.5-0.7-4.7-2.1c-0.9-1-1.5-2.3-1.7-4h-1.4v-1.1h1.3c0-0.1,0-0.2,0-0.3c0-0.4,0-0.7,0-1h-1.4v-1.2h1.5c0.3-1.6,1-3,1.9-3.9
		c1.2-1.2,2.7-1.9,4.6-1.9c1.4,0,2.4,0.4,3.1,0.7l-0.5,1.5c-0.6-0.3-1.5-0.6-2.6-0.6c-1.2,0-2.3,0.4-3,1.3c-0.7,0.7-1.2,1.7-1.4,2.9
		h6.4v1.2h-6.6c0,0.3,0,0.6,0,1c0,0.1,0,0.3,0,0.4h6.7v1.1h-6.5c0.2,1.3,0.6,2.3,1.3,3c0.9,0.9,2,1.3,3.3,1.3c1.2,0,2.3-0.5,2.8-0.8
		l0.4,1.5C27.7,35.4,26.5,35.8,25,35.8z"/>
</g>
</svg>
