<?xml version="1.0" encoding="utf-8"?>
<!-- Generator: Adobe Illustrator 21.0.2, SVG Export Plug-In . SVG Version: 6.00 Build 0)  -->
<svg version="1.1" id="Layer_1" xmlns="http://www.w3.org/2000/svg" xmlns:xlink="http://www.w3.org/1999/xlink" x="0px" y="0px"
	 viewBox="0 0 48 48" style="enable-background:new 0 0 48 48;" xml:space="preserve">
<style type="text/css">
	.st0{fill:#FEF1CE;}
	.st1{fill:#FBCD53;}
</style>
<g>
	<path class="st0" d="M36.9,38.2L36.7,38c-0.6-0.6-1.5-0.9-2.3-0.8l-10.7,2.5c-0.2,0-0.4,0-0.6,0l-3.1-1v-0.2l3.3,0.7
		c0.6,0.1,1.2-0.3,1.4-0.9l0.1-0.3c0.1-0.5-0.2-1-0.6-1.2l-4-1.8c-0.2-0.1-0.3-0.1-0.5-0.1h-1.5c-0.1,0-0.4,0-0.4,0L8,37.6l1.3,3.5
		l8-0.5l6.5,2.4l0,0l0,0l0,0l0,0l12.9-4.1C37,38.8,37.1,38.4,36.9,38.2z"/>
	<polygon class="st1" points="27,12.6 30,7.2 26.4,8.4 24,6 21.6,8.4 18,7.2 21,12.6 	"/>
	<path class="st1" d="M17.7,34.1l0.5-0.1c0,0,0.3,0,0.4,0H20c0.2,0,0.3,0,0.5,0.1l3.9,1.8c0.2,0.1,0.3,0.2,0.4,0.3
		c5.3-0.4,9.4-4.8,9.4-10.1c0-4.6-3-10.1-7.2-11.9h-6c-4.2,1.9-7.2,7.3-7.2,11.9C13.8,29.3,15.3,32.2,17.7,34.1z M17.6,25.7h1.2
		c0-0.1,0-0.2,0-0.3c0-0.3,0-0.7,0-1h-1.3v-1.1H19c0.3-1.5,0.9-2.8,1.8-3.6c1.1-1.1,2.5-1.8,4.3-1.8c1.3,0,2.3,0.4,2.9,0.7L27.5,20
		c-0.5-0.3-1.4-0.6-2.4-0.6c-1.2,0-2.1,0.4-2.8,1.2c-0.6,0.6-1.1,1.6-1.3,2.7h6v1.1h-6.2c0,0.3,0,0.6,0,0.9c0,0.1,0,0.2,0,0.4h6.3
		v1.1H21c0,1.2,0.4,2.2,1,2.8c0.8,0.8,1.9,1.3,3,1.3s2.1-0.4,2.6-0.7l0.4,1.4c-0.7,0.5-1.8,0.9-3.2,0.9c-1.7,0-3.3-0.7-4.4-1.9
		c-0.8-0.9-1.4-2.2-1.6-3.7h-1.3v-1.2C17.5,25.7,17.6,25.7,17.6,25.7z"/>
</g>
</svg>
