<?xml version="1.0" encoding="utf-8"?>
<!-- Generator: Adobe Illustrator 21.0.2, SVG Export Plug-In . SVG Version: 6.00 Build 0)  -->
<svg version="1.1" id="Layer_1" xmlns="http://www.w3.org/2000/svg" xmlns:xlink="http://www.w3.org/1999/xlink" x="0px" y="0px"
	 viewBox="0 0 48 48" style="enable-background:new 0 0 48 48;" xml:space="preserve">
<style type="text/css">
	.st0{fill:#C2E4DA;}
	.st1{fill:#FBCD53;}
	.st2{fill:none;stroke:#FDE39D;stroke-width:0.5;stroke-miterlimit:10;}
	.st3{fill:#70C1AA;}
	.st4{fill:#DE8BC8;}
	.st5{fill:#FDE39D;}
</style>
<path class="st0" d="M15,41.2c0,0.4,0.4,0.8,1,0.8h16c0.6,0,1-0.3,1-0.8V29H15V41.2z"/>
<g>
	<path class="st1" d="M13.7,18.8c-0.6-1-1.9-1.6-3.1-0.8c-1.3,0.7-1.4,2.2-0.8,3.1c1.1,1.8,3.1,2,3.8,2.1l0,0.4l0.5-0.3l-0.3-0.2
		C13.8,22.6,14.7,20.5,13.7,18.8z M10.2,21.2c-0.2,0-0.4-0.5-0.5-1.2c-0.1-0.6,0.2-1.2,0.3-1.2c0.1,0,0,0.6,0.1,1.3
		C10.2,20.8,10.4,21.2,10.2,21.2z"/>
	<line class="st2" x1="13.7" y1="23.4" x2="15.7" y2="26.9"/>
</g>
<g>
	<path class="st3" d="M20.9,17.9c-1.3-0.7-2.6-0.1-3.1,0.8c-1,1.7-0.2,3.8,0.1,4.3l-0.3,0.2l0.5,0.3l0-0.4c0.6-0.1,2.7-0.2,3.8-2.1
		C22.3,20.1,22.1,18.7,20.9,17.9z M21.6,20.1c-0.1,0.7-0.4,1.2-0.5,1.2c-0.2,0,0-0.4,0.1-1c0.1-0.7-0.1-1.3,0.1-1.3
		S21.7,19.4,21.6,20.1z"/>
	<line class="st2" x1="17.7" y1="23.4" x2="15.7" y2="26.9"/>
</g>
<g>
	<path class="st4" d="M18.6,16.9c0-1.4-1.1-2.9-2.9-2.9s-2.9,1.4-2.9,2.9c0,2.7,2.1,4.1,2.7,4.6l-0.2,0.5H16l-0.2-0.5
		C16.4,21.1,18.6,19.4,18.6,16.9z M13.9,16.2c-0.3,0.7-0.3,1.3-0.5,1.2c-0.2-0.1-0.1-0.8,0.1-1.6c0.3-0.7,0.9-1.2,1.1-1.1
		C14.8,14.8,14.2,15.4,13.9,16.2z"/>
	<line class="st2" x1="15.7" y1="21.9" x2="15.7" y2="27"/>
</g>
<path class="st3" d="M34,29H14v-1.8c0-0.6,0.5-1.2,1.2-1.2h17.7c0.6,0,1.2,0.5,1.2,1.2V29z"/>
<rect x="23" y="29" class="st5" width="2" height="13"/>
<polygon class="st1" points="30.2,21.2 28.8,19.8 24,24.6 19.9,20.5 18.5,21.9 23,26.4 23,29 25,29 25,26.4 "/>
<g>
	<path class="st4" d="M27.5,14.6c-0.8-1.4-2.7-2.1-4.4-1.1c-1.8,1-2,3-1.1,4.3c1.5,2.5,4.3,2.8,5.2,2.8l0.1,0.6l0.7-0.4l-0.4-0.3
		C27.7,19.8,28.9,17,27.5,14.6z M22.7,18c-0.3,0-0.6-0.7-0.7-1.6c-0.1-0.9,0.3-1.6,0.5-1.6c0.2,0,0,0.9,0.1,1.8S23,18,22.7,18z"/>
	<line class="st2" x1="27.5" y1="21" x2="30.3" y2="25.9"/>
</g>
<g>
	<path class="st4" d="M37.4,13.5c-1.8-1-3.5-0.2-4.3,1.1c-1.4,2.4-0.3,5.3,0.1,6l-0.4,0.3l0.7,0.4l0.1-0.6c0.8-0.1,3.7-0.3,5.2-2.8
		C39.4,16.5,39.2,14.5,37.4,13.5z M38.5,16.4C38.4,17.3,38,18,37.8,18c-0.3,0,0-0.5,0.2-1.5c0.1-0.9-0.2-1.8,0.1-1.8
		S38.6,15.5,38.5,16.4z"/>
	<line class="st2" x1="33" y1="21" x2="30.2" y2="25.9"/>
</g>
<g>
	<path class="st1" d="M34.3,12c0-2-1.5-4-4-4s-4,2-4,4c0,3.7,3,5.6,3.8,6.3L29.8,19h1l-0.3-0.7C31.2,17.8,34.3,15.5,34.3,12z
		 M27.8,11c-0.4,1-0.5,1.8-0.7,1.6c-0.3-0.1-0.2-1.1,0.2-2.1c0.4-1,1.3-1.6,1.5-1.5C29,9.1,28.2,10,27.8,11z"/>
	<line class="st2" x1="30.3" y1="19" x2="30.3" y2="26"/>
</g>
</svg>
