<?xml version="1.0" encoding="utf-8"?>
<!-- Generator: Adobe Illustrator 21.0.2, SVG Export Plug-In . SVG Version: 6.00 Build 0)  -->
<svg version="1.1" id="Layer_1" xmlns="http://www.w3.org/2000/svg" xmlns:xlink="http://www.w3.org/1999/xlink" x="0px" y="0px"
	 viewBox="0 0 48 48" style="enable-background:new 0 0 48 48;" xml:space="preserve">
<style type="text/css">
	.st0{fill:#FEF1CE;}
	.st1{fill:#EE7E87;}
	.st2{fill:#FDE39D;}
</style>
<g>
	<path class="st0" d="M38.4,38.2L38.2,38c-0.6-0.6-1.5-0.9-2.3-0.8l-10.7,2.5c-0.2,0-0.4,0-0.6,0l-3.2-0.9v-0.2l3.3,0.7
		c0.6,0.1,1.2-0.3,1.4-0.9l0.1-0.3c0.1-0.5-0.2-1-0.6-1.2L21.7,35c-0.2-0.1-0.3-0.1-0.5-0.1h-1.5c-0.1,0-0.4,0-0.4,0l-9.8,2.7
		l1.3,3.5l8-0.5l6.5,2.4l0,0l0,0l0,0l0,0l12.9-4.1C38.5,38.8,38.6,38.4,38.4,38.2z"/>
	<circle class="st1" cx="25.5" cy="10" r="5"/>
	<path class="st2" d="M19.5,32.9c0.1,0,0.2,0,0.2,0h1.5c0.2,0,0.3,0,0.5,0.1l3.9,1.8c0.1,0,2,1,2,1c0.5,0.2,0.7,0.7,0.6,1.2
		c1-0.2,2.2-0.5,3.3-0.8V31h-12V32.9z"/>
	<path class="st1" d="M14,26c0.7,0.5,1.6,0.3,2.1-0.4l3.4-5.2V30h12v-9.7l3.4,5.2c0.5,0.7,1.4,0.9,2.1,0.4s0.9-1.4,0.4-2.1L32.9,17
		c-0.2-0.6-0.8-1-1.4-1h-2h-8h-2c-0.6,0-1.2,0.4-1.4,1l-4.5,6.9C13.1,24.6,13.3,25.5,14,26z"/>
</g>
</svg>
