<?xml version="1.0" encoding="utf-8"?>
<!-- Generator: Adobe Illustrator 21.0.2, SVG Export Plug-In . SVG Version: 6.00 Build 0)  -->
<svg version="1.1" id="Layer_1" xmlns="http://www.w3.org/2000/svg" xmlns:xlink="http://www.w3.org/1999/xlink" x="0px" y="0px"
	 viewBox="0 0 48 48" style="enable-background:new 0 0 48 48;" xml:space="preserve">
<style type="text/css">
	.st0{fill:#70C1AA;}
	.st1{fill:#C2E4DA;}
	.st2{fill:#808080;}
</style>
<g>
	<path class="st0" d="M37.2,22.1h-3.7h-5.2h-8.7h-6.9H8.9c-0.1,0-0.2,0-0.3,0.1l0,0c-0.1,0-0.2,0.1-0.3,0.2S8.1,22.7,8.1,23v16.6
		c0,0.5,0.4,0.8,0.8,0.8h28.3c0.5,0,0.8-0.4,0.8-0.8V24.2v-1.3C38,22.5,37.7,22.1,37.2,22.1z M10.6,28.4c0-0.5,0.4-0.8,0.8-0.8h3.3
		c0.5,0,0.8,0.4,0.8,0.8v2.1c0,0.5-0.4,0.8-0.8,0.8h-3.3c-0.5,0-0.8-0.4-0.8-0.8V28.4z M34.7,37.1H11.4c-0.5,0-0.8-0.4-0.8-0.8
		c0-0.5,0.4-0.8,0.8-0.8h23.3c0.5,0,0.8,0.4,0.8,0.8C35.5,36.7,35.2,37.1,34.7,37.1z"/>
	<path class="st1" d="M40.4,22.1L36,13.7l-16.4,8.5h8.7l5.3-2.7l1.1,2.1l-1.2,0.6h3.7c0.5,0,0.8,0.4,0.8,0.8v1.3l2-1
		C40.4,23,40.6,22.5,40.4,22.1z"/>
	<polygon class="st2" points="19.6,22.1 36,13.7 34.5,10.8 12.6,22.1 	"/>
	<path class="st1" d="M8.6,22.2c0.1,0,0.2-0.1,0.3-0.1h3.7l21.9-11.3L33.1,8c-0.2-0.4-0.7-0.5-1.1-0.3L8,20
		c-0.4,0.2-0.5,0.7-0.3,1.1l0.7,1.3C8.4,22.3,8.5,22.2,8.6,22.2L8.6,22.2z"/>
</g>
</svg>
