<?xml version="1.0" encoding="utf-8"?>
<!-- Generator: Adobe Illustrator 21.0.2, SVG Export Plug-In . SVG Version: 6.00 Build 0)  -->
<svg version="1.1" id="Layer_1" xmlns="http://www.w3.org/2000/svg" xmlns:xlink="http://www.w3.org/1999/xlink" x="0px" y="0px"
	 viewBox="0 0 48 48" style="enable-background:new 0 0 48 48;" xml:space="preserve">
<style type="text/css">
	.st0{fill:#DE8BC8;}
	.st1{fill:#70C1AA;}
	.st2{fill:#C2E4DA;}
</style>
<path class="st0" d="M26.8,25h-5.5c-0.3,0-0.5-0.2-0.5-0.5v-2c0-0.3,0.2-0.5,0.5-0.5h5.5c0.3,0,0.5,0.2,0.5,0.5v2
	C27.3,24.8,27,25,26.8,25z"/>
<path class="st1" d="M29.1,7H18.9C18.4,7,18,7.4,18,7.9v2l0,0h2V9.1C20,8.5,20.5,8,21.1,8H27c0.5,0,1,0.5,1,1.1V10h2V7.9
	C30,7.4,29.6,7,29.1,7z"/>
<path class="st2" d="M37,25h-9v0.5c0,0.3-0.2,0.5-0.5,0.5h-7c-0.3,0-0.5-0.2-0.5-0.5V25h-9c-0.4,0-0.7-0.1-1-0.3v8.4
	c0,1,0.8,1.9,1.9,1.9h24.5c0.9,0,1.7-0.7,1.7-1.7v-8.6C37.7,24.9,37.4,25,37,25z"/>
<path class="st1" d="M37,11H11c-1.1,0-2,0.9-2,2v9c0,1.1,0.9,2,2,2h8.9v-2.5c0-0.3,0.2-0.5,0.5-0.5h7.3c0.3,0,0.5,0.2,0.5,0.5V24H37
	c1.1,0,2-0.9,2-2v-9C39,11.9,38.1,11,37,11z"/>
</svg>
