<?xml version="1.0" encoding="utf-8"?>
<!-- Generator: Adobe Illustrator 21.0.2, SVG Export Plug-In . SVG Version: 6.00 Build 0)  -->
<svg version="1.1" id="Layer_1" xmlns="http://www.w3.org/2000/svg" xmlns:xlink="http://www.w3.org/1999/xlink" x="0px" y="0px"
	 viewBox="0 0 48 48" style="enable-background:new 0 0 48 48;" xml:space="preserve">
<style type="text/css">
	.st0{fill:#DE8BC8;}
</style>
<path class="st0" d="M30.3,31.1c-0.8,0-1.6-0.2-2.2-0.6c-0.7-0.4-1.1-1-1.4-1.9c-0.7,0.9-1.5,1.5-2.3,1.9s-1.7,0.6-2.6,0.6
	c-0.8,0-1.5-0.1-2-0.4c-0.6-0.3-1.1-0.6-1.4-1.1c-0.4-0.5-0.7-1-0.9-1.7c-0.2-0.6-0.3-1.4-0.3-2.1c0-0.7,0.1-1.4,0.3-2.1
	c0.2-0.7,0.4-1.4,0.8-2.1s0.8-1.3,1.3-1.9c0.5-0.6,1.2-1.1,1.9-1.5c0.7-0.4,1.5-0.8,2.4-1c0.9-0.3,1.9-0.4,3-0.4
	c0.9,0,1.8,0.1,2.4,0.2c0.7,0.1,1.3,0.4,2,0.6l-1.8,6.9c-0.2,0.8-0.3,1.4-0.3,2c0,0.4,0,0.7,0.1,0.9c0.1,0.2,0.2,0.4,0.4,0.6
	c0.2,0.1,0.3,0.2,0.6,0.3c0.2,0.1,0.5,0.1,0.7,0.1c0.5,0,1-0.2,1.5-0.5c0.5-0.3,0.9-0.8,1.2-1.4s0.6-1.3,0.8-2.1
	c0.2-0.8,0.3-1.7,0.3-2.7c0-1.6-0.2-3-0.7-4.2c-0.5-1.2-1.2-2.2-2.1-3.1c-0.9-0.8-2-1.4-3.2-1.8c-1.2-0.4-2.6-0.6-4.1-0.6
	c-1.6,0-3.1,0.3-4.5,0.9s-2.6,1.4-3.6,2.5c-1,1.1-1.8,2.3-2.4,3.8c-0.6,1.4-0.9,3-0.9,4.7c0,2,0.3,3.8,0.9,5.3
	c0.6,1.5,1.5,2.8,2.6,3.8s2.4,1.8,3.9,2.3c1.5,0.5,3.1,0.8,4.8,0.8c0.9,0,1.8-0.1,2.7-0.2c0.8-0.1,1.6-0.2,2.3-0.4
	c0.7-0.2,1.3-0.4,1.9-0.6c0.6-0.2,1.1-0.5,1.5-0.7c0.2-0.1,0.5-0.2,0.6-0.2c0.4,0,0.6,0.2,0.8,0.6l0.6,1.6c-1.3,0.8-2.8,1.5-4.5,2.1
	c-1.7,0.5-3.7,0.8-5.9,0.8c-2.2,0-4.3-0.4-6.2-1.1c-1.9-0.7-3.5-1.7-4.9-3s-2.5-2.9-3.3-4.8c-0.8-1.9-1.2-4-1.2-6.4
	c0-1.3,0.2-2.6,0.5-3.8c0.3-1.2,0.8-2.4,1.5-3.5c0.6-1.1,1.4-2.1,2.3-3c0.9-0.9,1.9-1.7,3-2.3c1.1-0.7,2.3-1.2,3.5-1.5
	c1.3-0.4,2.6-0.5,4-0.5c1.7,0,3.4,0.3,5,0.9c1.6,0.6,3,1.4,4.3,2.5c1.2,1.1,2.2,2.4,3,4s1.1,3.3,1.1,5.3c0,1.3-0.2,2.6-0.6,3.7
	c-0.4,1.2-0.9,2.2-1.6,3c-0.7,0.8-1.5,1.5-2.5,2C32.4,30.9,31.4,31.1,30.3,31.1z M22.6,28.2c0.3,0,0.6,0,1-0.1
	c0.3-0.1,0.6-0.3,0.9-0.5c0.3-0.3,0.6-0.6,0.8-1c0.2-0.4,0.4-0.9,0.6-1.6l1.3-5.2c-0.4-0.1-0.8-0.1-1.2-0.1c-0.8,0-1.5,0.2-2.1,0.5
	c-0.7,0.3-1.2,0.8-1.7,1.3c-0.5,0.6-0.9,1.2-1.2,2c-0.3,0.7-0.4,1.5-0.4,2.3c0,0.8,0.2,1.4,0.5,1.8C21.5,28,22,28.2,22.6,28.2z"/>
</svg>
