<?xml version="1.0" encoding="utf-8"?>
<!-- Generator: Adobe Illustrator 21.0.2, SVG Export Plug-In . SVG Version: 6.00 Build 0)  -->
<svg version="1.1" id="Layer_1" xmlns="http://www.w3.org/2000/svg" xmlns:xlink="http://www.w3.org/1999/xlink" x="0px" y="0px"
	 viewBox="0 0 48 48" style="enable-background:new 0 0 48 48;" xml:space="preserve">
<style type="text/css">
	.st0{fill:#DE8BC8;}
	.st1{fill:#FBCD53;}
</style>
<g>
	<path class="st0" d="M39.2,22.1c-0.2-0.3-0.8,0.3-1,0c-1.7-3.1-5.4-5.6-10-6.4l0,0c-0.6-0.1-1.2-0.2-1.8-0.3c-0.1,0-0.1,0-0.2,0
		c-0.6-0.1-1.2-0.1-1.8-0.1c-0.4,0-0.8,0-1.3,0c-0.1,0-0.1,0-0.2,0c-0.3,0-0.7,0.1-1,0.1c0,0,0,0-0.1,0c-0.8,0.1-1.4,0.3-2,0.4l0,0
		c-1.2,0.3-2.3,0.8-3.2,1.5c-0.3,0.2-2.5-0.4-2.5-0.4s-1.4-0.3-1.7,0c-0.3,0.3,2,2.2,1.7,2.5c-1.8,1.7-2.6,2.5-2.6,2.5
		c-0.4,0.5-2.4-0.6-2.6,0c-0.3,0.8-0.2,1.3,0,1.9C9,24.4,9.2,25,9.4,25.6c0.3,1,0.8,2.5,1,3c0.9,2.3,2.9,4.3,5.5,5.7
		c0.3,0.2,0,2.9,0,2.9h2.6c0,0,0.6-1.6,0.8-1.5c1.6,0.4,3.4,0.7,5.2,0.7c2.1,0,4.1-0.3,6-0.9c0.3-0.1,0.8,1.8,0.8,1.8h2.6
		c0,0-0.3-3.2,0-3.4c3.5-2.5,5.2-4.8,5.2-8c0-0.8-0.1-1.5-0.3-2.2C38.8,23.4,39.3,22.3,39.2,22.1z M15.1,25.4
		c-0.7,0-1.3-0.8-1.3-1.7s0.6-1.7,1.3-1.7c0.7,0,1.3,0.8,1.3,1.7S15.8,25.4,15.1,25.4z"/>
	<path class="st1" d="M22,15.4C22.1,15.4,22.1,15.4,22,15.4c0.4-0.1,0.8-0.1,1.1-0.1c0.1,0,0.1,0,0.2,0c0.4,0,0.8,0,1.3,0
		c0.6,0,1.2,0,1.8,0.1c0.1,0,0.1,0,0.2,0c0.6,0.1,1.2,0.2,1.8,0.3l0,0c0-0.2,0.1-0.4,0.1-0.6c0-2.4-1.9-4.2-4.2-4.2
		s-4.2,1.9-4.2,4.2c0,0.3,0.1,0.6,0.1,0.8l0,0C20.6,15.6,21.3,15.5,22,15.4z M22.8,13.2h0.3v-0.1c0-0.1,0-0.2,0-0.3h-0.3v-0.3h0.3
		c0.1-0.3,0.2-0.7,0.4-0.8c0.3-0.3,0.6-0.4,1-0.4c0.3,0,0.5,0.1,0.7,0.2l-0.1,0.3c-0.1-0.1-0.3-0.2-0.6-0.2s-0.5,0.1-0.7,0.3
		c-0.2,0.2-0.3,0.3-0.3,0.7H25v0.3h-1.4c0,0.1,0,0.2,0,0.2v0.1H25v0.3h-1.4c0,0.3,0.2,0.5,0.3,0.7c0.2,0.2,0.4,0.3,0.7,0.3
		c0.3,0,0.5-0.1,0.6-0.2l0.1,0.3c-0.2,0.1-0.4,0.2-0.8,0.2c-0.4,0-0.8-0.2-1-0.4c-0.2-0.2-0.3-0.5-0.3-0.8h-0.3L22.8,13.2L22.8,13.2
		z"/>
</g>
</svg>
