<?xml version="1.0" encoding="utf-8"?>
<!-- Generator: Adobe Illustrator 21.0.2, SVG Export Plug-In . SVG Version: 6.00 Build 0)  -->
<svg version="1.1" id="Layer_1" xmlns="http://www.w3.org/2000/svg" xmlns:xlink="http://www.w3.org/1999/xlink" x="0px" y="0px"
	 viewBox="0 0 48 48" style="enable-background:new 0 0 48 48;" xml:space="preserve">
<style type="text/css">
	.st0{fill:#DE8BC8;}
	.st1{fill:#70C1AA;}
	.st2{fill:#808080;}
</style>
<g>
	<path class="st0" d="M10.5,18c-3,0-5.5,2.5-5.5,5.5S7.5,29,10.5,29s5.5-2.5,5.5-5.5S13.5,18,10.5,18z M10.7,27.3
		c-0.9,0-1.7-0.3-2.2-1c-0.4-0.5-0.7-1.1-0.8-1.9H7v-0.5h0.6c0-0.1,0-0.1,0-0.2c0-0.2,0-0.3,0-0.5H7v-0.5h0.7
		c0.1-0.8,0.5-1.4,0.9-1.9c0.6-0.6,1.3-0.9,2.2-0.9c0.6,0,1.2,0.2,1.5,0.4L12,21c-0.3-0.2-0.7-0.3-1.2-0.3c-0.6,0-1.1,0.2-1.5,0.6
		c-0.3,0.3-0.5,0.8-0.7,1.4h3.1v0.5H8.6c0,0.1,0,0.3,0,0.5c0,0.1,0,0.1,0,0.2h3.2v0.5H8.6c0.1,0.6,0.3,1.1,0.6,1.4
		c0.4,0.4,1,0.6,1.6,0.6s1.1-0.2,1.3-0.4l0.2,0.7C12,27,11.4,27.3,10.7,27.3z"/>
	<path class="st1" d="M37.6,13.5c-5.1-7.2-15-9-22.3-3.9c-2.2,1.5-3.8,3.5-5,5.7c1.2-0.1,2.4,0.1,3.4,0.6c0.9-1.4,2-2.6,3.4-3.6
		c5.8-4,13.7-2.6,17.8,3.1c4,5.8,2.6,13.7-3.1,17.8c-3.3,2.3-7.3,2.8-10.9,1.8l0.5-2.7l-4.9,3.4l3.4,4.9l0.5-2.4
		c4.4,1.2,9.3,0.5,13.3-2.3C40.9,30.8,42.6,20.8,37.6,13.5z"/>
	<path class="st2" d="M24.5,14h-1v6.6c0.2,0,0.3-0.1,0.5-0.1s0.3,0,0.5,0.1V14z"/>
	<path class="st2" d="M31,24.5v-1h-3.6c0,0.2,0.1,0.3,0.1,0.5s0,0.3-0.1,0.5H31z"/>
	<circle class="st1" cx="24.3" cy="23.8" r="1.8"/>
</g>
</svg>
